<svg height="480pt" viewBox="-12 0 480 480.00192" width="480pt" xmlns="http://www.w3.org/2000/svg">
  <g fill="#1616ca">
    <path d="m0 336c.0273438 22.082031 17.921875 39.972656 40 40h125.199219l-27.101563 88h-26.097656v16h208
             v-16h-165.167969l28.847657-93.648438c.75-2.433593.296874-5.074218-1.21875-7.117187-1.515626-2.042969
             -3.914063-3.246094-6.460938-3.234375h-136c-13.253906 0-24-10.746094-24-24v-16h152v-16h-152v-200
             c0-13.253906 10.746094-24 24-24v208h16v-256c0-8.835938 7.164062-16 16-16h240v32c0 17.671875 14.328125
             32 32 32h32v144h16v-144h8c13.253906 0 24 10.746094 24 24v232c0 6.886719-2.960938 13.445312-8.128906
             18l5.296875 6-5.304688-5.992188c-1.195312 1.054688-2.492187 1.988282-3.871093 2.792969l8 13.839844
             c2.296874-1.332031 4.457031-2.886719 6.449218-4.640625 8.617188-7.589844 13.554688-18.515625 13.558594-30
             v-232c-.027344-22.082031-17.917969-39.972656-40-40h-12.6875l-61.648438-61.65625c-.695312-.675781-1.507812
             -1.214844-2.398437-1.601562-.226563-.09375-.441406-.15625-.664063-.238282-.703124-.246094-1.441406-.390625
             -2.183593-.4335935-.128907.0078125-.265625-.0703125-.417969-.0703125h-248c-17.671875 0-32 14.328125-32 32
             v32c-22.078125.027344-39.9726562 17.917969-40 40zm328-308.679688 36.6875 36.679688h-20.6875
             c-8.835938 0-16-7.164062-16-16zm0 0"
    />
    <path d="m72 32h16v16h-16zm0 0"/>
    <path d="m104 32h16v16h-16zm0 0"/>
    <path d="m136 32h16v16h-16zm0 0"/>
    <path d="m360 208v-104c0-4.417969-3.582031-8-8-8h-272c-4.417969 0-8 3.582031-8 8v176c0 4.417969 3.582031 8 8 8
             h96v-16h-88v-52.6875l64.59375-64.59375 74.398438 59.527344
             c2.796874 2.234375 6.738281 2.339844 9.648437.257812l50.847656-36.320312 35.199219 30.839844 10.546875
             -12.046876-40-35c-2.796875-2.441406-6.902344-2.640624-9.921875-.480468l-51.078125 36.480468-75.273437
             -60.222656c-3.183594-2.550781-7.773438-2.292968-10.65625.589844l-58.304688 58.34375v-84.6875h256v96zm0 0"
    />
    <path d="m208 152c0 13.253906 10.746094 24 24 24s24-10.746094 24-24-10.746094-24-24-24-24 10.746094-24 24zm32 0
             c0 4.417969-3.582031 8-8 8s-8-3.582031-8-8 3.582031-8 8-8 8 3.582031 8 8zm0 0"
    />
    <path d="m138.347656 194.34375 15.996094-15.996094 11.316406 11.3125-16 15.996094zm0 0"/>
    <path d="m98.347656 234.339844 32.003906-32 11.3125 11.3125-32 32.003906zm0 0"/>
    <path d="m393.777344 382.464844c27.925781-49.933594 13.890625-112.871094-32.601563-146.207032-46.492187-33.339843
             -110.605469-26.4375-148.9375 16.03125s-38.648437 106.953126-.738281 149.796876 101.957031 50.375
             148.773438 17.5l53.105468 53.101562c7.140625 7.140625 17.878906 9.277344 27.210938 5.414062
             9.328125-3.867187 15.410156-12.96875 15.410156-23.070312-.015625-6.617188-2.644531-12.960938-7.3125
             -17.65625zm-97.777344 41.535156c-53.019531 0-96-42.980469-96-96s42.980469-96 96-96 96 42.980469 96 96
             c-.054688 52.996094-43.003906 95.941406-96 96zm135.03125 40c-2.378906.007812-4.664062-.9375-6.34375-2.625
             l-52-52c4.363281-4.117188 8.386719-8.578125 12.042969-13.335938l52.628906 52.632813c2.578125 2.5625
             3.355469 6.425781 1.96875 9.78125-1.386719 3.359375-4.664063 5.550781-8.296875 5.546875zm0 0"
    />
    <path d="m296 248c-44.183594 0-80 35.816406-80 80s35.816406 80 80 80 80-35.816406 80-80c-.046875-44.164062
             -35.835938-79.953125-80-80zm0 144c-35.34375 0-64-28.652344-64-64s28.65625-64 64-64
             c35.347656 0 64 28.652344 64 64-.039062 35.328125-28.667969 63.960938-64 64zm0 0"
    />
    <path d="m248 328h16c0-17.671875 14.328125-32 32-32v-16c-26.496094.027344-47.972656 21.5-48 48zm0 0"/>
    <path d="m72 64h224v16h-224zm0 0"/>
  </g>
</svg>
